# xmcd CD database file
#
# Track frame offsets:
#	150
#	13891
#	25807
#	33628
#	44617
#	56957
#	66677
#	77501
#	91963
#	115616
#	125654
#	138497
#	155902
#	167413
#	182155
#	196361
#	206381
#	219240
#	232616
#	243308
#	255095
#	266955
#	275664
#	287748
#
# Disc length: 3954 seconds
#
# Revision: 1
# Processed by: cddbd v1.4PL0 Copyright (c) Steve Scherf et al.
# Submitted via: CDex 1.50beta9
#
DISCID=620f7018
DTITLE=Jimmy Dean and Johnny Horton - Kerry's Favorites
DYEAR=1900
DGENRE=Country
TTITLE0=Big Bad John
TTITLE1=The Cajun Queen
TTITLE2=Harvest Of Sunshine
TTITLE3=Little Black Book
TTITLE4=Steel Man
TTITLE5=First Thing Ev'ry Morning
TTITLE6=Sam Hill
TTITLE7=P.T.109
TTITLE8=To A Sleeping Beauty
TTITLE9=Farmer And The Lord
TTITLE10=I Won't Go Huntin' With You Jake
TTITLE11=Dear Ivan
TTITLE12=The Battle Of New Orleans
TTITLE13=Sink The Bismarck
TTITLE14=Commanche (The Brave Horse)
TTITLE15=Honky Tonk Man
TTITLE16=North To Alaska
TTITLE17=Whispering Pines
TTITLE18=Johnny Reb
TTITLE19=Rock Island Line
TTITLE20=When It's Springtime In Alaska (It's 40 Below)
TTITLE21=All Grown Up
TTITLE22=Sleepy Eyed John
TTITLE23=I'm A One Woman Man
EXTD=
EXTT0=
EXTT1=
EXTT2=
EXTT3=
EXTT4=
EXTT5=
EXTT6=
EXTT7=
EXTT8=
EXTT9=
EXTT10=
EXTT11=
EXTT12=
EXTT13=
EXTT14=
EXTT15=
EXTT16=
EXTT17=
EXTT18=
EXTT19=
EXTT20=
EXTT21=
EXTT22=
EXTT23=
PLAYORDER=
